<?xml version="1.0" encoding="UTF-8" standalone="no"?>
<!-- Created with Inkscape (http://www.inkscape.org/) -->

<svg
   xmlns:svg="http://www.w3.org/2000/svg"
   xmlns="http://www.w3.org/2000/svg"
   xmlns:sodipodi="http://sodipodi.sourceforge.net/DTD/sodipodi-0.dtd"
   xmlns:inkscape="http://www.inkscape.org/namespaces/inkscape"
   id="svg4174"
   version="1.1"
   inkscape:version="0.91 r13725"
   xml:space="preserve"
   width="795"
   height="1048.75"
   viewBox="0 0 795 1048.75"
   sodipodi:docname="mecanisme_3DDL.eps"><sodipodi:namedview
     pagecolor="#ffffff"
     bordercolor="#666666"
     borderopacity="1"
     objecttolerance="10"
     gridtolerance="10"
     guidetolerance="10"
     inkscape:pageopacity="0"
     inkscape:pageshadow="2"
     inkscape:window-width="1920"
     inkscape:window-height="1050"
     id="namedview4176"
     showgrid="false"
     inkscape:zoom="1.9318236"
     inkscape:cx="600.48061"
     inkscape:cy="-89.159486"
     inkscape:window-x="1920"
     inkscape:window-y="44"
     inkscape:window-maximized="1"
     inkscape:current-layer="g4184"
     inkscape:snap-nodes="true"
     inkscape:object-paths="true"
     inkscape:snap-intersection-paths="true"
     inkscape:object-nodes="true"
     inkscape:snap-smooth-nodes="true"
     inkscape:snap-midpoints="true"
     inkscape:snap-object-midpoints="true"
     inkscape:snap-center="true" /><g
     id="g8112"
     transform="matrix(0.44989071,0,0,0.44989071,154.37445,161.28472)"><g
       id="g8114"
       transform="matrix(1.1357143,0,0,-1.1357143,-198.75,786.5625)"
       xml:space="preserve"
       stroke-miterlimit="10.433"
       font-style="normal"
       font-variant="normal"
       font-weight="normal"
       font-stretch="normal"
       font-size-adjust="none"
       letter-spacing="normal"
       word-spacing="normal"
       style="font-style:normal;font-variant:normal;font-weight:normal;font-stretch:normal;letter-spacing:normal;word-spacing:normal;text-anchor:start;fill:none;fill-opacity:1;fill-rule:evenodd;stroke:#000000;stroke-linecap:butt;stroke-linejoin:miter;stroke-miterlimit:10.43299961;stroke-dasharray:none;stroke-dashoffset:0;stroke-opacity:1"><path
         d="m 457.53,437.73 0.13,-0.02 0.13,-0.02 0.23,-0.03 0.23,-0.04 0.21,-0.03 0.2,-0.04 0.19,-0.04 0.17,-0.04 0.16,-0.04 0.15,-0.04 0.15,-0.05 0.13,-0.05 0.12,-0.05 0.12,-0.06 0.11,-0.07 0.1,-0.07 0.1,-0.08 0.08,-0.08 0.09,-0.09 0.08,-0.1 0.08,-0.11 0.07,-0.11 0.07,-0.13 0.07,-0.14 0.06,-0.14 0.07,-0.16 0.07,-0.17 0.06,-0.18 0.07,-0.2 0.07,-0.2 0.07,-0.22 0.04,-0.12 0.03,-0.12 0.04,-0.12 0.04,-0.13 3.84,-13.4 -3.04,-10.56 c -0.85,-2.69 -1.95,-3.48 -5.23,-3.68 l 0,-0.8 14.39,0 0,0.8 c -0.8,0.05 -1.49,0.1 -1.79,0.15 -1.94,0.1 -2.64,0.59 -2.64,1.84 0,1.05 0.35,2.54 1.54,6.42 0.15,0.45 0.25,0.8 0.3,1 l 1.45,5.03 10.9,13.45 c 1.6,1.99 2,2.35 3.49,3.04 l 0,0.8 -9.41,0 0,-0.8 c 0.59,-0.05 1.14,-0.1 1.34,-0.15 1.45,-0.15 2.09,-0.54 2.09,-1.39 0,-1.35 -2.29,-4.58 -7.47,-10.61 -0.85,-1 -1.14,-1.4 -1.89,-2.29 -0.6,2.19 -0.75,2.83 -1.55,5.48 -1.24,4.28 -1.79,6.42 -1.79,7.17 0,1.19 0.6,1.49 3.59,1.79 l 0,0.8 -11.91,0 z"
         id="path8116"
         inkscape:connector-curvature="0"
         style="fill:#000000;stroke-width:0" /><path
         d="m 496.32,441.51 0.04,0.08 0.03,0.08 0.03,0.08 0.04,0.07 0.02,0.08 0.03,0.07 0.03,0.07 0.02,0.07 0.02,0.07 0.02,0.07 0.02,0.06 0.01,0.07 0.01,0.07 0.01,0.07 0,0.06 0.01,0.07 c 0,1.07 -0.96,1.96 -2.1,1.96 -1.04,0 -1.7,-0.7 -1.96,-1.66 l -4.39,-16.11 c 0,-0.07 -0.14,-0.48 -0.14,-0.52 0,-0.4 0.96,-0.66 1.25,-0.66 0.22,0 0.26,0.11 0.48,0.59 z"
         id="path8118"
         inkscape:connector-curvature="0"
         style="fill:#000000;stroke-width:0" /></g></g><g
     id="g8706"
     transform="matrix(0.44989799,0,0,0.44989799,180.1009,135.63575)"><g
       word-spacing="normal"
       letter-spacing="normal"
       font-size-adjust="none"
       font-stretch="normal"
       font-weight="normal"
       font-variant="normal"
       font-style="normal"
       stroke-miterlimit="10.433"
       xml:space="preserve"
       transform="matrix(1.1357143,0,0,-1.1357143,-198.75,786.5625)"
       id="g8708"
       style="font-style:normal;font-variant:normal;font-weight:normal;font-stretch:normal;letter-spacing:normal;word-spacing:normal;text-anchor:start;fill:none;fill-opacity:1;fill-rule:evenodd;stroke:#000000;stroke-linecap:butt;stroke-linejoin:miter;stroke-miterlimit:10.43299961;stroke-dasharray:none;stroke-dashoffset:0;stroke-opacity:1"><path
         id="path8710"
         d="m 488.63,438.53 -10.36,0 0,-0.8 c 2.44,-0.3 3.03,-0.65 3.03,-1.79 0,-0.65 -0.29,-1.25 -0.99,-2.05 l -7.22,-8.31 -2.94,7.32 c -0.55,1.3 -0.75,2.14 -0.75,2.79 0,1.24 0.8,1.69 3.54,2.04 l 0,0.8 -13.15,0 0,-0.8 c 2.89,-0.25 3.63,-0.75 4.58,-3.04 l 5.28,-13.1 c -1.85,-2.09 -3.49,-4.04 -4.13,-4.83 -6.93,-8.17 -8.32,-9.42 -10.97,-9.96 l 0,-0.8 10.66,0 0,0.8 c -2.39,0 -3.23,0.45 -3.23,1.69 0,0.75 0.4,1.6 1.04,2.34 l 7.53,8.57 3.33,-8.22 c 0.35,-0.89 0.55,-1.69 0.55,-2.44 0,-1.44 -0.5,-1.69 -3.79,-1.94 l 0,-0.8 13.6,0 0,0.8 c -3.48,0.4 -3.93,0.7 -5.18,3.68 l -5.08,12.86 8.42,9.66 c 2.59,2.89 4.08,4.04 6.23,4.73 z"
         inkscape:connector-curvature="0"
         style="fill:#000000;stroke-width:0" /><path
         id="path8712"
         d="m 500.32,441.51 0.04,0.08 0.03,0.08 0.03,0.08 0.04,0.07 0.02,0.08 0.03,0.07 0.03,0.07 0.02,0.07 0.02,0.07 0.02,0.07 0.02,0.06 0.01,0.07 0.01,0.07 0.01,0.07 0,0.06 0.01,0.07 c 0,1.07 -0.96,1.96 -2.1,1.96 -1.04,0 -1.7,-0.7 -1.96,-1.66 l -4.39,-16.11 c 0,-0.07 -0.14,-0.48 -0.14,-0.52 0,-0.4 0.96,-0.66 1.25,-0.66 0.22,0 0.26,0.11 0.48,0.59 z"
         inkscape:connector-curvature="0"
         style="fill:#000000;stroke-width:0" /></g></g></svg>