<?xml version="1.0" encoding="UTF-8" standalone="no"?>
<!-- Created with Inkscape (http://www.inkscape.org/) -->

<svg
   xmlns:dc="http://purl.org/dc/elements/1.1/"
   xmlns:cc="http://creativecommons.org/ns#"
   xmlns:rdf="http://www.w3.org/1999/02/22-rdf-syntax-ns#"
   xmlns:svg="http://www.w3.org/2000/svg"
   xmlns="http://www.w3.org/2000/svg"
   xmlns:sodipodi="http://sodipodi.sourceforge.net/DTD/sodipodi-0.dtd"
   xmlns:inkscape="http://www.inkscape.org/namespaces/inkscape"
   id="svg8032"
   version="1.1"
   inkscape:version="0.92.2 2405546, 2018-03-11"
   xml:space="preserve"
   width="299.4075"
   height="247.9825"
   viewBox="0 0 299.4075 247.9825"
   sodipodi:docname="geo_base.svg"><metadata
     id="metadata8038"><rdf:RDF><cc:Work
         rdf:about=""><dc:format>image/svg+xml</dc:format><dc:type
           rdf:resource="http://purl.org/dc/dcmitype/StillImage" /><dc:title></dc:title></cc:Work></rdf:RDF></metadata><defs
     id="defs8036"><clipPath
       clipPathUnits="userSpaceOnUse"
       id="clipPath8080"><path
         d="m 206,161.609 4,0 0,-6.961 -4,0 0,6.961 z"
         id="path8082"
         inkscape:connector-curvature="0" /></clipPath><clipPath
       clipPathUnits="userSpaceOnUse"
       id="clipPath8090"><path
         d="m 206,156 4,0 0,6 -4,0 0,-6 z"
         id="path8092"
         inkscape:connector-curvature="0" /></clipPath><clipPath
       clipPathUnits="userSpaceOnUse"
       id="clipPath8170"><path
         d="m 142,49.386 4,0 0,-6.961 -4,0 0,6.961 z"
         id="path8172"
         inkscape:connector-curvature="0" /></clipPath><clipPath
       clipPathUnits="userSpaceOnUse"
       id="clipPath8180"><path
         d="m 142,43 4,0 0,7 -4,0 0,-7 z"
         id="path8182"
         inkscape:connector-curvature="0" /></clipPath><clipPath
       clipPathUnits="userSpaceOnUse"
       id="clipPath8196"><path
         d="m 73,107.37 6,0 0,-8.984 -6,0 0,8.984 z"
         id="path8198"
         inkscape:connector-curvature="0" /></clipPath><clipPath
       clipPathUnits="userSpaceOnUse"
       id="clipPath8206"><path
         d="m 73,99 6,0 0,9 -6,0 0,-9 z"
         id="path8208"
         inkscape:connector-curvature="0" /></clipPath><clipPath
       clipPathUnits="userSpaceOnUse"
       id="clipPath8222"><path
         d="m 101,107.37 6,0 0,-8.984 -6,0 0,8.984 z"
         id="path8224"
         inkscape:connector-curvature="0" /></clipPath><clipPath
       clipPathUnits="userSpaceOnUse"
       id="clipPath8232"><path
         d="m 101,99 6,0 0,9 -6,0 0,-9 z"
         id="path8234"
         inkscape:connector-curvature="0" /></clipPath><clipPath
       clipPathUnits="userSpaceOnUse"
       id="clipPath8270"><path
         d="m 135,107.37 6,0 0,-8.984 -6,0 0,8.984 z"
         id="path8272"
         inkscape:connector-curvature="0" /></clipPath><clipPath
       clipPathUnits="userSpaceOnUse"
       id="clipPath8280"><path
         d="m 135,99 6,0 0,9 -6,0 0,-9 z"
         id="path8282"
         inkscape:connector-curvature="0" /></clipPath></defs><sodipodi:namedview
     pagecolor="#ffffff"
     bordercolor="#666666"
     borderopacity="1"
     objecttolerance="10"
     gridtolerance="10"
     guidetolerance="10"
     inkscape:pageopacity="0"
     inkscape:pageshadow="2"
     inkscape:window-width="1920"
     inkscape:window-height="1173"
     id="namedview8034"
     showgrid="false"
     inkscape:zoom="2.6917577"
     inkscape:cx="86.692796"
     inkscape:cy="105.7183"
     inkscape:window-x="0"
     inkscape:window-y="0"
     inkscape:window-maximized="1"
     inkscape:current-layer="g8040" /><g
     id="g8040"
     inkscape:groupmode="layer"
     inkscape:label="geo_base"
     transform="matrix(1.25,0,0,-1.25,0,247.9825)"><g
       id="g8042"><path
         d="M 133.328,31.718 C 127.715,21.304 95.574,0.835 78.789,0.699 62,0.566 60.562,20.765 60.969,30.956 c 0.402,10.188 2.644,10.368 8.976,10.684 6.328,0.312 16.743,0.762 32.41,0.805 15.665,0.046 36.583,-0.313 30.973,-10.727 z"
         style="fill:#a8a8a8;fill-opacity:1;fill-rule:evenodd;stroke:#000000;stroke-width:0.40000001;stroke-linecap:butt;stroke-linejoin:round;stroke-miterlimit:10;stroke-dasharray:none;stroke-opacity:1"
         id="path8044"
         inkscape:connector-curvature="0" /><path
         d="m 225,153.156 -224,0"
         style="fill:none;stroke:#000000;stroke-width:2;stroke-linecap:butt;stroke-linejoin:round;stroke-miterlimit:10;stroke-dasharray:none;stroke-opacity:1"
         id="path8046"
         inkscape:connector-curvature="0" /><path
         d="m 225,153.218 -10,3.328 2,-3.328 -2,-3.332 10,3.332 z"
         style="fill:#000000;fill-opacity:1;fill-rule:evenodd;stroke:#000000;stroke-width:2;stroke-linecap:butt;stroke-linejoin:round;stroke-miterlimit:10;stroke-dasharray:none;stroke-opacity:1"
         id="path8048"
         inkscape:connector-curvature="0" /><path
         d="m 235.422,157.116 0.39,0.407 c 0.766,0.765 1.407,0.953 2,1.015 0.188,0.016 0.344,0.032 0.344,0.328 0,0.172 -0.172,0.172 -0.203,0.172 -0.203,0 -0.437,-0.047 -0.641,-0.047 l -0.703,0 c -0.5,0 -1.031,0.047 -1.515,0.047 -0.125,0 -0.313,0 -0.313,-0.328 0,-0.156 0.172,-0.172 0.235,-0.172 0.515,-0.031 0.515,-0.297 0.515,-0.406 0,-0.187 -0.14,-0.437 -0.484,-0.844 l -4.109,-4.687 -1.938,5.234 c -0.109,0.235 -0.109,0.266 -0.109,0.297 0,0.375 0.718,0.406 0.921,0.406 0.204,0 0.391,0 0.391,0.313 0,0.187 -0.156,0.187 -0.25,0.187 -0.297,0 -0.641,-0.047 -0.937,-0.047 l -1.907,0 c -0.312,0 -0.64,0.047 -0.937,0.047 -0.125,0 -0.313,0 -0.313,-0.328 0,-0.172 0.157,-0.172 0.422,-0.172 0.844,0 1,-0.156 1.157,-0.562 l 2.124,-5.735 c 0.016,-0.046 0.079,-0.234 0.079,-0.281 0,-0.062 -0.844,-3.453 -0.907,-3.625 -0.125,-0.453 -0.296,-0.547 -1.406,-0.562 -0.297,0 -0.437,0 -0.437,-0.328 0,-0.172 0.203,-0.172 0.25,-0.172 0.312,0 0.671,0.031 1,0.031 l 2.031,0 c 0.312,0 0.672,-0.031 0.984,-0.031 0.11,0 0.328,0 0.328,0.312 0,0.188 -0.125,0.188 -0.422,0.188 -1.062,0 -1.062,0.125 -1.062,0.312 0,0.125 0.141,0.672 0.219,1.016 l 0.625,2.484 c 0.094,0.36 0.094,0.391 0.25,0.563 l 4.328,4.968 z"
         style="fill:#000000;fill-opacity:1;fill-rule:nonzero;stroke:none"
         id="path8050"
         inkscape:connector-curvature="0" /><path
         d="m 97,121.218 0,32"
         style="fill:none;stroke:#000000;stroke-width:2;stroke-linecap:butt;stroke-linejoin:round;stroke-miterlimit:10;stroke-dasharray:none;stroke-opacity:1"
         id="path8052"
         inkscape:connector-curvature="0" /><path
         d="m 97,121.218 3.328,10 -3.328,-2 -3.328,2 3.328,-10 z"
         style="fill:#000000;fill-opacity:1;fill-rule:evenodd;stroke:#000000;stroke-width:2;stroke-linecap:butt;stroke-linejoin:round;stroke-miterlimit:10;stroke-dasharray:none;stroke-opacity:1"
         id="path8054"
         inkscape:connector-curvature="0" /><path
         d="m 33,153.218 0,36"
         style="fill:none;stroke:#000000;stroke-width:2;stroke-linecap:butt;stroke-linejoin:round;stroke-miterlimit:10;stroke-dasharray:1, 3;stroke-dashoffset:0;stroke-opacity:1"
         id="path8056"
         inkscape:connector-curvature="0" /><path
         d="m 129,153.218 0,18.285"
         style="fill:none;stroke:#000000;stroke-width:2;stroke-linecap:butt;stroke-linejoin:round;stroke-miterlimit:10;stroke-dasharray:1, 3;stroke-dashoffset:0;stroke-opacity:1"
         id="path8058"
         inkscape:connector-curvature="0" /><path
         d="m 193,153.218 0,16"
         style="fill:none;stroke:#000000;stroke-width:2;stroke-linecap:butt;stroke-linejoin:round;stroke-miterlimit:10;stroke-dasharray:1, 3;stroke-dashoffset:0;stroke-opacity:1"
         id="path8060"
         inkscape:connector-curvature="0" /><path
         d="m 33,153.218 0,-144"
         style="fill:none;stroke:#000000;stroke-width:2;stroke-linecap:butt;stroke-linejoin:round;stroke-miterlimit:10;stroke-dasharray:1, 3;stroke-dashoffset:0;stroke-opacity:1"
         id="path8062"
         inkscape:connector-curvature="0" /><path
         d="m 161,153.218 0,-144"
         style="fill:none;stroke:#000000;stroke-width:2;stroke-linecap:butt;stroke-linejoin:round;stroke-miterlimit:10;stroke-dasharray:1, 3;stroke-dashoffset:0;stroke-opacity:1"
         id="path8064"
         inkscape:connector-curvature="0" /><path
         d="m 41.375,164.699 c 0.109,0.453 0.156,0.468 0.625,0.468 l 1.547,0 c 1.359,0 1.359,-1.14 1.359,-1.25 0,-0.968 -0.968,-2.203 -2.547,-2.203 l -1.718,0 0.734,2.985 z m 2.016,-3.079 c 1.312,0.235 2.484,1.157 2.484,2.25 0,0.938 -0.813,1.641 -2.172,1.641 l -3.828,0 c -0.234,0 -0.344,0 -0.344,-0.219 0,-0.125 0.11,-0.125 0.297,-0.125 0.719,0 0.719,-0.093 0.719,-0.218 0,-0.032 0,-0.094 -0.047,-0.282 l -1.609,-6.422 c -0.11,-0.421 -0.141,-0.546 -0.969,-0.546 -0.234,0 -0.344,0 -0.344,-0.219 0,-0.125 0.063,-0.125 0.313,-0.125 l 4.093,0 c 1.828,0 3.235,1.39 3.235,2.594 0,0.984 -0.86,1.578 -1.828,1.671 z m -1.688,-3.921 -1.625,0 c -0.156,0 -0.187,0 -0.25,0.015 -0.14,0.016 -0.156,0.031 -0.156,0.125 0,0.094 0.031,0.156 0.047,0.266 l 0.843,3.375 2.25,0 c 1.407,0 1.407,-1.313 1.407,-1.406 0,-1.157 -1.031,-2.375 -2.516,-2.375 z"
         style="fill:#000000;fill-opacity:1;fill-rule:nonzero;stroke:none"
         id="path8066"
         inkscape:connector-curvature="0" /><path
         d="m 48.395,160.64 c 0,0.219 -0.016,0.219 -0.235,0.219 -0.328,-0.313 -0.75,-0.5 -1.5,-0.5 l 0,-0.266 c 0.219,0 0.641,0 1.11,0.203 l 0,-4.078 c 0,-0.297 -0.032,-0.391 -0.782,-0.391 l -0.281,0 0,-0.265 c 0.328,0.031 1.016,0.031 1.375,0.031 0.359,0 1.047,0 1.375,-0.031 l 0,0.265 -0.281,0 c -0.75,0 -0.781,0.094 -0.781,0.391 l 0,4.422 z"
         style="fill:#000000;fill-opacity:1;fill-rule:nonzero;stroke:none"
         id="path8068"
         inkscape:connector-curvature="0" /><path
         d="m 137.375,164.699 c 0.109,0.453 0.156,0.468 0.625,0.468 l 1.547,0 c 1.359,0 1.359,-1.14 1.359,-1.25 0,-0.968 -0.968,-2.203 -2.547,-2.203 l -1.718,0 0.734,2.985 z m 2.016,-3.079 c 1.312,0.235 2.484,1.157 2.484,2.25 0,0.938 -0.813,1.641 -2.172,1.641 l -3.828,0 c -0.234,0 -0.344,0 -0.344,-0.219 0,-0.125 0.11,-0.125 0.297,-0.125 0.719,0 0.719,-0.093 0.719,-0.218 0,-0.032 0,-0.094 -0.047,-0.282 l -1.609,-6.422 c -0.11,-0.421 -0.141,-0.546 -0.969,-0.546 -0.234,0 -0.344,0 -0.344,-0.219 0,-0.125 0.063,-0.125 0.313,-0.125 l 4.093,0 c 1.828,0 3.235,1.39 3.235,2.594 0,0.984 -0.86,1.578 -1.828,1.671 z m -1.688,-3.921 -1.625,0 c -0.156,0 -0.187,0 -0.25,0.015 -0.14,0.016 -0.156,0.031 -0.156,0.125 0,0.094 0.031,0.156 0.047,0.266 l 0.843,3.375 2.25,0 c 1.407,0 1.407,-1.313 1.407,-1.406 0,-1.157 -1.031,-2.375 -2.516,-2.375 z"
         style="fill:#000000;fill-opacity:1;fill-rule:nonzero;stroke:none"
         id="path8070"
         inkscape:connector-curvature="0" /><path
         d="m 144.145,157.187 c 0.125,0.125 0.453,0.39 0.593,0.5 0.485,0.453 0.953,0.89 0.953,1.609 0,0.953 -0.796,1.563 -1.781,1.563 -0.969,0 -1.594,-0.719 -1.594,-1.438 0,-0.39 0.313,-0.437 0.422,-0.437 0.172,0 0.422,0.109 0.422,0.422 0,0.406 -0.406,0.406 -0.5,0.406 0.235,0.594 0.766,0.781 1.156,0.781 0.735,0 1.125,-0.625 1.125,-1.297 0,-0.828 -0.578,-1.437 -1.531,-2.39 l -1,-1.047 c -0.094,-0.078 -0.094,-0.094 -0.094,-0.297 l 3.141,0 0.234,1.422 -0.25,0 c -0.015,-0.157 -0.078,-0.547 -0.171,-0.703 -0.047,-0.063 -0.657,-0.063 -0.782,-0.063 l -1.422,0 1.079,0.969 z"
         style="fill:#000000;fill-opacity:1;fill-rule:nonzero;stroke:none"
         id="path8072"
         inkscape:connector-curvature="0" /><path
         d="m 201.375,164.784 c 0.109,0.454 0.156,0.469 0.625,0.469 l 1.547,0 c 1.359,0 1.359,-1.14 1.359,-1.25 0,-0.969 -0.968,-2.203 -2.547,-2.203 l -1.718,0 0.734,2.984 z m 2.016,-3.078 c 1.312,0.235 2.484,1.157 2.484,2.25 0,0.938 -0.813,1.641 -2.172,1.641 l -3.828,0 c -0.234,0 -0.344,0 -0.344,-0.219 0,-0.125 0.11,-0.125 0.297,-0.125 0.719,0 0.719,-0.094 0.719,-0.219 0,-0.031 0,-0.093 -0.047,-0.281 l -1.609,-6.422 c -0.11,-0.422 -0.141,-0.547 -0.969,-0.547 -0.234,0 -0.344,0 -0.344,-0.218 0,-0.125 0.063,-0.125 0.313,-0.125 l 4.093,0 c 1.828,0 3.235,1.39 3.235,2.593 0,0.985 -0.86,1.579 -1.828,1.672 z m -1.688,-3.922 -1.625,0 c -0.156,0 -0.187,0 -0.25,0.016 -0.14,0.016 -0.156,0.031 -0.156,0.125 0,0.094 0.031,0.156 0.047,0.266 l 0.843,3.375 2.25,0 c 1.407,0 1.407,-1.313 1.407,-1.407 0,-1.156 -1.031,-2.375 -2.516,-2.375 z"
         style="fill:#000000;fill-opacity:1;fill-rule:nonzero;stroke:none"
         id="path8074"
         inkscape:connector-curvature="0" /></g><g
       id="g8076"><g
         id="g8078"
         clip-path="url(#clipPath8080)"><g
           id="g8084"
           transform="translate(0,-0.613998)"><g
             id="g8086"><g
               id="g8088"
               clip-path="url(#clipPath8090)"><g
                 id="g8094"><path
                   d="m 207.91,158.918 c 0.625,0 1.031,-0.453 1.031,-1.297 0,-1 -0.562,-1.281 -0.984,-1.281 -0.437,0 -1.047,0.156 -1.328,0.578 0.297,0 0.5,0.187 0.5,0.437 0,0.266 -0.188,0.438 -0.453,0.438 -0.203,0 -0.438,-0.125 -0.438,-0.453 0,-0.75 0.813,-1.25 1.735,-1.25 1.047,0 1.797,0.734 1.797,1.531 0,0.672 -0.532,1.266 -1.344,1.453 0.625,0.219 1.109,0.75 1.109,1.391 0,0.64 -0.719,1.094 -1.547,1.094 -0.859,0 -1.5,-0.454 -1.5,-1.063 0,-0.297 0.188,-0.422 0.407,-0.422 0.25,0 0.406,0.172 0.406,0.406 0,0.297 -0.266,0.407 -0.438,0.407 0.344,0.437 0.953,0.468 1.094,0.468 0.203,0 0.813,-0.062 0.813,-0.89 0,-0.547 -0.235,-0.891 -0.344,-1.016 -0.235,-0.25 -0.422,-0.265 -0.906,-0.297 -0.157,0 -0.219,-0.015 -0.219,-0.125 0,-0.109 0.078,-0.109 0.219,-0.109 l 0.39,0 z"
                   style="fill:#000000;fill-opacity:1;fill-rule:nonzero;stroke:none"
                   id="path8096"
                   inkscape:connector-curvature="0" /></g></g></g></g></g></g><path
       inkscape:connector-curvature="0"
       id="path8100"
       style="fill:none;stroke:#000000;stroke-width:2;stroke-linecap:butt;stroke-linejoin:round;stroke-miterlimit:10;stroke-dasharray:1, 3;stroke-dashoffset:0;stroke-opacity:1"
       d="m 97,153.218 0,36" /><path
       inkscape:connector-curvature="0"
       id="path8102"
       style="fill:none;stroke:#000000;stroke-width:2;stroke-linecap:butt;stroke-linejoin:round;stroke-miterlimit:10;stroke-dasharray:1, 3;stroke-dashoffset:0;stroke-opacity:1"
       d="m 161,153.222 0,33.758" /><path
       inkscape:connector-curvature="0"
       id="path8104"
       style="fill:none;stroke:#000000;stroke-width:0.80000001;stroke-linecap:butt;stroke-linejoin:round;stroke-miterlimit:10;stroke-dasharray:none;stroke-opacity:1"
       d="m 193,169.214 -32,0" /><path
       inkscape:connector-curvature="0"
       id="path8106"
       style="fill:#000000;fill-opacity:1;fill-rule:evenodd;stroke:#000000;stroke-width:0.80000001;stroke-linecap:butt;stroke-linejoin:round;stroke-miterlimit:10;stroke-dasharray:none;stroke-opacity:1"
       d="m 161,169.214 5,-1.664 0,3.328 -5,-1.664 z" /><path
       inkscape:connector-curvature="0"
       id="path8108"
       style="fill:#000000;fill-opacity:1;fill-rule:evenodd;stroke:#000000;stroke-width:0.80000001;stroke-linecap:butt;stroke-linejoin:round;stroke-miterlimit:10;stroke-dasharray:none;stroke-opacity:1"
       d="m 193,169.214 -5,1.664 0,-3.328 5,1.664 z" /><path
       inkscape:connector-curvature="0"
       id="path8110"
       style="fill:none;stroke:#000000;stroke-width:0.80000001;stroke-linecap:butt;stroke-linejoin:round;stroke-miterlimit:10;stroke-dasharray:none;stroke-opacity:1"
       d="m 161,169.218 -32,0" /><path
       inkscape:connector-curvature="0"
       id="path8112"
       style="fill:#000000;fill-opacity:1;fill-rule:evenodd;stroke:#000000;stroke-width:0.80000001;stroke-linecap:butt;stroke-linejoin:round;stroke-miterlimit:10;stroke-dasharray:none;stroke-opacity:1"
       d="m 129,169.218 5,-1.668 0,3.332 -5,-1.664 z" /><path
       inkscape:connector-curvature="0"
       id="path8114"
       style="fill:#000000;fill-opacity:1;fill-rule:evenodd;stroke:#000000;stroke-width:0.80000001;stroke-linecap:butt;stroke-linejoin:round;stroke-miterlimit:10;stroke-dasharray:none;stroke-opacity:1"
       d="m 161,169.218 -5,1.664 0,-3.332 5,1.668 z" /><path
       inkscape:connector-curvature="0"
       id="path8116"
       style="fill:none;stroke:#000000;stroke-width:0.80000001;stroke-linecap:butt;stroke-linejoin:round;stroke-miterlimit:10;stroke-dasharray:none;stroke-opacity:1"
       d="m 97,185.218 64,0" /><path
       inkscape:connector-curvature="0"
       id="path8118"
       style="fill:#000000;fill-opacity:1;fill-rule:evenodd;stroke:#000000;stroke-width:0.80000001;stroke-linecap:butt;stroke-linejoin:round;stroke-miterlimit:10;stroke-dasharray:none;stroke-opacity:1"
       d="m 161,185.218 -7,2.328 0,-4.66 7,2.332 z" /><path
       inkscape:connector-curvature="0"
       id="path8120"
       style="fill:#000000;fill-opacity:1;fill-rule:evenodd;stroke:#000000;stroke-width:0.80000001;stroke-linecap:butt;stroke-linejoin:round;stroke-miterlimit:10;stroke-dasharray:none;stroke-opacity:1"
       d="m 97,185.218 7,-2.332 0,4.66 -7,-2.328 z" /><path
       inkscape:connector-curvature="0"
       id="path8122"
       style="fill:none;stroke:#000000;stroke-width:0.80000001;stroke-linecap:butt;stroke-linejoin:round;stroke-miterlimit:10;stroke-dasharray:none;stroke-opacity:1"
       d="m 33,185.218 64,0" /><path
       inkscape:connector-curvature="0"
       id="path8124"
       style="fill:#000000;fill-opacity:1;fill-rule:evenodd;stroke:#000000;stroke-width:0.80000001;stroke-linecap:butt;stroke-linejoin:round;stroke-miterlimit:10;stroke-dasharray:none;stroke-opacity:1"
       d="m 97,185.218 -7,2.328 0,-4.66 7,2.332 z" /><path
       inkscape:connector-curvature="0"
       id="path8126"
       style="fill:#000000;fill-opacity:1;fill-rule:evenodd;stroke:#000000;stroke-width:0.80000001;stroke-linecap:butt;stroke-linejoin:round;stroke-miterlimit:10;stroke-dasharray:none;stroke-opacity:1"
       d="m 33,185.218 7,-2.332 0,4.66 -7,-2.328 z" /><path
       inkscape:connector-curvature="0"
       id="path8128"
       style="fill:#000000;fill-opacity:1;fill-rule:nonzero;stroke:none"
       d="m 65.391,196.468 c 0.109,0.453 0.14,0.563 1.187,0.563 0.328,0 0.406,0 0.406,0.234 0,0.109 -0.125,0.109 -0.172,0.109 -0.25,0 -0.515,-0.015 -0.75,-0.015 l -1.609,0 c -0.219,0 -0.484,0.015 -0.719,0.015 -0.093,0 -0.218,0 -0.218,-0.218 0,-0.125 0.109,-0.125 0.281,-0.125 0.734,0 0.734,-0.094 0.734,-0.219 0,-0.031 0,-0.094 -0.047,-0.281 l -1.625,-6.422 c -0.109,-0.422 -0.125,-0.547 -0.968,-0.547 -0.219,0 -0.344,0 -0.344,-0.219 0,-0.125 0.078,-0.125 0.312,-0.125 l 5.36,0 c 0.265,0 0.265,0.016 0.359,0.234 l 0.922,2.532 c 0.016,0.062 0.047,0.14 0.047,0.172 0,0.078 -0.063,0.125 -0.125,0.125 -0.016,0 -0.078,0 -0.094,-0.047 -0.031,-0.016 -0.031,-0.047 -0.125,-0.266 -0.375,-1.047 -0.922,-2.406 -2.937,-2.406 l -1.141,0 c -0.172,0 -0.203,0 -0.266,0.015 -0.14,0.016 -0.14,0.032 -0.14,0.125 0,0.094 0.015,0.157 0.047,0.266 l 1.625,6.5 z" /><path
       inkscape:connector-curvature="0"
       id="path8130"
       style="fill:#000000;fill-opacity:1;fill-rule:nonzero;stroke:none"
       d="m 129.391,196.468 c 0.109,0.453 0.14,0.563 1.187,0.563 0.328,0 0.406,0 0.406,0.234 0,0.109 -0.125,0.109 -0.172,0.109 -0.25,0 -0.515,-0.015 -0.75,-0.015 l -1.609,0 c -0.219,0 -0.484,0.015 -0.719,0.015 -0.093,0 -0.218,0 -0.218,-0.218 0,-0.125 0.109,-0.125 0.281,-0.125 0.734,0 0.734,-0.094 0.734,-0.219 0,-0.031 0,-0.094 -0.047,-0.281 l -1.625,-6.422 c -0.109,-0.422 -0.125,-0.547 -0.968,-0.547 -0.219,0 -0.344,0 -0.344,-0.219 0,-0.125 0.078,-0.125 0.312,-0.125 l 5.36,0 c 0.265,0 0.265,0.016 0.359,0.234 l 0.922,2.532 c 0.016,0.062 0.047,0.14 0.047,0.172 0,0.078 -0.063,0.125 -0.125,0.125 -0.016,0 -0.078,0 -0.094,-0.047 -0.031,-0.016 -0.031,-0.047 -0.125,-0.266 -0.375,-1.047 -0.922,-2.406 -2.937,-2.406 l -1.141,0 c -0.172,0 -0.203,0 -0.266,0.015 -0.14,0.016 -0.14,0.032 -0.14,0.125 0,0.094 0.015,0.157 0.047,0.266 l 1.625,6.5 z" /><path
       inkscape:connector-curvature="0"
       id="path8132"
       style="fill:#000000;fill-opacity:1;fill-rule:nonzero;stroke:none"
       d="m 146.094,175.249 c -0.75,-0.734 -0.938,-0.922 -0.938,-0.968 0,-0.047 0.047,-0.125 0.125,-0.125 0.063,0 0.75,0.656 0.844,0.765 0.063,-0.812 0.375,-1.844 1.297,-1.844 0.484,0 0.906,0.297 1.109,0.438 0.157,0.125 0.719,0.609 0.719,0.719 0,0.062 -0.047,0.125 -0.109,0.125 -0.047,0 -0.235,-0.172 -0.282,-0.219 -0.421,-0.406 -0.937,-0.828 -1.421,-0.828 -0.641,0 -0.735,0.937 -0.735,1.578 0,0.125 0,0.625 0.094,0.719 0.703,0.734 2.906,3.015 2.906,5.125 0,0.484 -0.172,0.906 -0.687,0.906 -1.11,0 -2.078,-2.469 -2.25,-2.922 -0.047,-0.125 -0.735,-1.969 -0.672,-3.469 z m 0.718,0.735 c 0.016,0.078 0.547,3.203 1.563,4.89 0.203,0.313 0.406,0.516 0.641,0.516 0.406,0 0.437,-0.375 0.437,-0.641 0,-0.422 -0.125,-1.5 -1.172,-3 -0.312,-0.437 -0.781,-1.047 -1.469,-1.765 z" /><path
       inkscape:connector-curvature="0"
       id="path8134"
       style="fill:#000000;fill-opacity:1;fill-rule:nonzero;stroke:none"
       d="m 174.094,175.644 c -0.75,-0.735 -0.938,-0.922 -0.938,-0.969 0,-0.047 0.047,-0.125 0.125,-0.125 0.063,0 0.75,0.656 0.844,0.766 0.063,-0.813 0.375,-1.844 1.297,-1.844 0.484,0 0.906,0.297 1.109,0.437 0.157,0.125 0.719,0.61 0.719,0.719 0,0.063 -0.047,0.125 -0.109,0.125 -0.047,0 -0.235,-0.172 -0.282,-0.219 -0.421,-0.406 -0.937,-0.828 -1.421,-0.828 -0.641,0 -0.735,0.938 -0.735,1.578 0,0.125 0,0.625 0.094,0.719 0.703,0.735 2.906,3.016 2.906,5.125 0,0.485 -0.172,0.906 -0.687,0.906 -1.11,0 -2.078,-2.468 -2.25,-2.921 -0.047,-0.125 -0.735,-1.969 -0.672,-3.469 z m 0.718,0.734 c 0.016,0.078 0.547,3.203 1.563,4.891 0.203,0.312 0.406,0.515 0.641,0.515 0.406,0 0.437,-0.375 0.437,-0.64 0,-0.422 -0.125,-1.5 -1.172,-3 -0.312,-0.438 -0.781,-1.047 -1.469,-1.766 z" /><path
       inkscape:connector-curvature="0"
       id="path8136"
       style="fill:#000000;fill-opacity:1;fill-rule:evenodd;stroke:none"
       d="m 94.852,150.366 5,5 -0.704,0.7 -5,-5 0.704,-0.7 z" /><path
       inkscape:connector-curvature="0"
       id="path8138"
       style="fill:#000000;fill-opacity:1;fill-rule:evenodd;stroke:none"
       d="m 94.852,156.066 5,-5 -0.704,-0.7 -5,5 0.704,0.7 z" /><path
       inkscape:connector-curvature="0"
       id="path8140"
       style="fill:#000000;fill-opacity:1;fill-rule:nonzero;stroke:none"
       d="m 85.172,128.202 -1.61,3.782 c 0.219,0.406 0.735,0.484 0.938,0.5 0.109,0 0.297,0.015 0.297,0.312 0,0.188 -0.156,0.188 -0.25,0.188 -0.297,0 -0.641,-0.047 -0.938,-0.047 l -1,0 c -1.047,0 -1.797,0.047 -1.828,0.047 -0.125,0 -0.297,0 -0.297,-0.328 0,-0.172 0.157,-0.172 0.375,-0.172 1,0 1.063,-0.172 1.235,-0.594 l 2.047,-4.781 -3.735,-4 c -0.609,-0.672 -1.359,-1.328 -2.625,-1.391 -0.219,-0.016 -0.343,-0.016 -0.343,-0.328 0,-0.047 0.015,-0.172 0.203,-0.172 0.234,0 0.5,0.031 0.734,0.031 l 0.813,0 c 0.546,0 1.156,-0.031 1.687,-0.031 0.125,0 0.328,0 0.328,0.313 0,0.171 -0.125,0.187 -0.219,0.187 -0.343,0.031 -0.578,0.219 -0.578,0.5 0,0.297 0.203,0.5 0.703,1.016 l 1.532,1.672 c 0.39,0.39 1.297,1.39 1.671,1.765 l 1.813,-4.234 c 0.016,-0.031 0.094,-0.203 0.094,-0.219 0,-0.156 -0.391,-0.469 -0.938,-0.5 -0.109,0 -0.297,-0.016 -0.297,-0.328 0,-0.172 0.172,-0.172 0.266,-0.172 0.297,0 0.641,0.031 0.922,0.031 l 1.906,0 c 0.297,0 0.625,-0.031 0.922,-0.031 0.125,0 0.312,0 0.312,0.328 0,0.172 -0.171,0.172 -0.328,0.172 -1.031,0.016 -1.062,0.109 -1.359,0.734 l -2.281,5.344 2.187,2.344 c 0.172,0.172 0.578,0.594 0.735,0.766 0.734,0.781 1.422,1.484 2.812,1.578 0.172,0.015 0.344,0.015 0.344,0.312 0,0.188 -0.141,0.188 -0.219,0.188 -0.234,0 -0.5,-0.047 -0.734,-0.047 l -0.797,0 c -0.547,0 -1.156,0.047 -1.688,0.047 -0.125,0 -0.328,0 -0.328,-0.313 0,-0.172 0.125,-0.187 0.219,-0.187 0.281,-0.032 0.578,-0.172 0.578,-0.5 l -0.015,-0.032 c -0.016,-0.125 -0.063,-0.296 -0.25,-0.5 l -3.016,-3.25 z" /><path
       inkscape:connector-curvature="0"
       id="path8142"
       style="fill:#000000;fill-opacity:1;fill-rule:evenodd;stroke:#000000;stroke-width:0.80000001;stroke-linecap:butt;stroke-linejoin:round;stroke-miterlimit:10;stroke-dasharray:none;stroke-opacity:1"
       d="m 129,153.218 -64,-112" /><path
       inkscape:connector-curvature="0"
       id="path8144"
       style="fill:#000000;fill-opacity:1;fill-rule:evenodd;stroke:#000000;stroke-width:0.80000001;stroke-linecap:butt;stroke-linejoin:round;stroke-miterlimit:10;stroke-dasharray:none;stroke-opacity:1"
       d="m 193,153.218 -64,-112" /><path
       inkscape:connector-curvature="0"
       id="path8146"
       style="fill:#000000;fill-opacity:1;fill-rule:evenodd;stroke:#000000;stroke-width:0.80207413;stroke-linecap:butt;stroke-linejoin:round;stroke-miterlimit:10;stroke-dasharray:none;stroke-opacity:1"
       d="M 33.000968,153.21666 113.36835,41.149787" /><path
       inkscape:connector-curvature="0"
       id="path8148"
       style="fill:none;stroke:#000000;stroke-width:2;stroke-linecap:butt;stroke-linejoin:round;stroke-miterlimit:10;stroke-dasharray:none;stroke-opacity:1"
       d="m 65,41.218 64,0" /><path
       inkscape:connector-curvature="0"
       id="path8150"
       style="fill:#000000;fill-opacity:1;fill-rule:nonzero;stroke:none"
       d="m 97.352,33.706 2.015,0 c 1.656,0 3.297,1.219 3.297,2.594 0,0.922 -0.781,1.766 -2.297,1.766 l -3.687,0 c -0.235,0 -0.344,0 -0.344,-0.219 0,-0.125 0.109,-0.125 0.297,-0.125 0.719,0 0.719,-0.094 0.719,-0.219 0,-0.031 0,-0.094 -0.047,-0.281 L 95.695,30.8 c -0.109,-0.422 -0.125,-0.547 -0.968,-0.547 -0.219,0 -0.344,0 -0.344,-0.219 0,-0.125 0.109,-0.125 0.172,-0.125 0.234,0 0.468,0.032 0.703,0.032 l 1.39,0 c 0.235,0 0.485,-0.032 0.704,-0.032 0.109,0 0.234,0 0.234,0.235 0,0.109 -0.109,0.109 -0.281,0.109 -0.719,0 -0.735,0.094 -0.735,0.203 0,0.063 0.016,0.141 0.016,0.203 l 0.766,3.047 z m 0.875,3.547 c 0.093,0.453 0.14,0.469 0.609,0.469 l 1.187,0 c 0.891,0 1.641,-0.281 1.641,-1.172 0,-0.312 -0.156,-1.328 -0.703,-1.891 -0.203,-0.203 -0.781,-0.656 -1.875,-0.656 l -1.688,0 0.829,3.25 z" /><path
       inkscape:connector-curvature="0"
       id="path8152"
       style="fill:#000000;fill-opacity:1;fill-rule:evenodd;stroke:none"
       d="m 94.852,38.366 5,5 -0.704,0.7 -5,-5 0.704,-0.7 z" /><path
       inkscape:connector-curvature="0"
       id="path8154"
       style="fill:#000000;fill-opacity:1;fill-rule:evenodd;stroke:none"
       d="m 94.852,44.066 5,-5 -0.704,-0.7 -5,5 0.704,0.7 z" /><path
       inkscape:connector-curvature="0"
       id="path8156"
       style="fill:#000000;fill-opacity:1;fill-rule:nonzero;stroke:none"
       d="M 71.031,46.55 C 70.609,45.847 70.203,45.597 69.641,45.566 69.5,45.55 69.406,45.55 69.406,45.347 c 0,-0.078 0.063,-0.125 0.141,-0.125 0.219,0 0.75,0.031 0.969,0.031 0.343,0 0.734,-0.031 1.062,-0.031 0.078,0 0.219,0 0.219,0.234 0,0.094 -0.094,0.11 -0.172,0.11 -0.266,0.031 -0.5,0.125 -0.5,0.406 0,0.172 0.078,0.297 0.234,0.562 l 0.907,1.516 3.046,0 c 0.016,-0.109 0.016,-0.203 0.016,-0.312 0.047,-0.313 0.188,-1.563 0.188,-1.782 0,-0.359 -0.61,-0.39 -0.797,-0.39 -0.141,0 -0.266,0 -0.266,-0.219 0,-0.125 0.109,-0.125 0.172,-0.125 0.203,0 0.453,0.031 0.656,0.031 l 0.672,0 c 0.735,0 1.266,-0.031 1.266,-0.031 0.093,0 0.219,0 0.219,0.234 0,0.11 -0.11,0.11 -0.282,0.11 -0.656,0 -0.672,0.109 -0.703,0.468 l -0.734,7.454 c -0.031,0.25 -0.078,0.265 -0.203,0.265 -0.125,0 -0.188,-0.015 -0.297,-0.203 l -4.188,-7 z m 1.438,1.844 2.406,4.015 0.406,-4.015 -2.812,0 z" /><path
       inkscape:connector-curvature="0"
       id="path8158"
       style="fill:#000000;fill-opacity:1;fill-rule:nonzero;stroke:none"
       d="m 80.023,45.05 c 0.125,0.125 0.454,0.391 0.594,0.5 0.485,0.453 0.953,0.891 0.953,1.609 0,0.954 -0.797,1.563 -1.781,1.563 -0.969,0 -1.594,-0.719 -1.594,-1.438 0,-0.39 0.313,-0.437 0.422,-0.437 0.172,0 0.422,0.109 0.422,0.422 0,0.406 -0.406,0.406 -0.5,0.406 0.234,0.594 0.766,0.781 1.156,0.781 0.735,0 1.125,-0.625 1.125,-1.297 0,-0.828 -0.578,-1.437 -1.531,-2.39 l -1,-1.047 c -0.094,-0.078 -0.094,-0.094 -0.094,-0.297 l 3.141,0 0.234,1.422 -0.25,0 C 81.305,44.691 81.242,44.3 81.148,44.144 81.102,44.081 80.492,44.081 80.367,44.081 l -1.422,0 1.078,0.969 z" /><g
       id="g8873"
       transform="translate(-0.3121388,-1.0245271)"><path
         d="m 115.031,46.55 c -0.422,-0.703 -0.828,-0.953 -1.39,-0.984 -0.141,-0.016 -0.235,-0.016 -0.235,-0.219 0,-0.078 0.063,-0.125 0.141,-0.125 0.219,0 0.75,0.031 0.969,0.031 0.343,0 0.734,-0.031 1.062,-0.031 0.078,0 0.219,0 0.219,0.234 0,0.094 -0.094,0.11 -0.172,0.11 -0.266,0.031 -0.5,0.125 -0.5,0.406 0,0.172 0.078,0.297 0.234,0.562 l 0.907,1.516 h 3.046 c 0.016,-0.109 0.016,-0.203 0.016,-0.312 0.047,-0.313 0.188,-1.563 0.188,-1.782 0,-0.359 -0.61,-0.39 -0.797,-0.39 -0.141,0 -0.266,0 -0.266,-0.219 0,-0.125 0.109,-0.125 0.172,-0.125 0.203,0 0.453,0.031 0.656,0.031 h 0.672 c 0.735,0 1.266,-0.031 1.266,-0.031 0.093,0 0.219,0 0.219,0.234 0,0.11 -0.11,0.11 -0.282,0.11 -0.656,0 -0.672,0.109 -0.703,0.468 l -0.734,7.454 c -0.031,0.25 -0.078,0.265 -0.203,0.265 -0.125,0 -0.188,-0.015 -0.297,-0.203 z m 1.438,1.844 2.406,4.015 0.406,-4.015 z"
         style="fill:#000000;fill-opacity:1;fill-rule:nonzero;stroke:none"
         id="path8160"
         inkscape:connector-curvature="0" /><path
         d="m 124.273,48.503 c 0,0.219 -0.015,0.219 -0.234,0.219 -0.328,-0.313 -0.75,-0.5 -1.5,-0.5 v -0.266 c 0.219,0 0.641,0 1.109,0.203 v -4.078 c 0,-0.297 -0.031,-0.39 -0.781,-0.39 h -0.281 v -0.266 c 0.328,0.031 1.016,0.031 1.375,0.031 0.359,0 1.047,0 1.375,-0.031 v 0.266 h -0.281 c -0.75,0 -0.782,0.093 -0.782,0.39 z"
         style="fill:#000000;fill-opacity:1;fill-rule:nonzero;stroke:none"
         id="path8162"
         inkscape:connector-curvature="0" /></g><path
       inkscape:connector-curvature="0"
       id="path8164"
       style="fill:#000000;fill-opacity:1;fill-rule:nonzero;stroke:none"
       d="m 135.031,46.55 c -0.422,-0.703 -0.828,-0.953 -1.39,-0.984 -0.141,-0.016 -0.235,-0.016 -0.235,-0.219 0,-0.078 0.063,-0.125 0.141,-0.125 0.219,0 0.75,0.031 0.969,0.031 0.343,0 0.734,-0.031 1.062,-0.031 0.078,0 0.219,0 0.219,0.234 0,0.094 -0.094,0.11 -0.172,0.11 -0.266,0.031 -0.5,0.125 -0.5,0.406 0,0.172 0.078,0.297 0.234,0.562 l 0.907,1.516 3.046,0 c 0.016,-0.109 0.016,-0.203 0.016,-0.312 0.047,-0.313 0.188,-1.563 0.188,-1.782 0,-0.359 -0.61,-0.39 -0.797,-0.39 -0.141,0 -0.266,0 -0.266,-0.219 0,-0.125 0.109,-0.125 0.172,-0.125 0.203,0 0.453,0.031 0.656,0.031 l 0.672,0 c 0.735,0 1.266,-0.031 1.266,-0.031 0.093,0 0.219,0 0.219,0.234 0,0.11 -0.11,0.11 -0.282,0.11 -0.656,0 -0.672,0.109 -0.703,0.468 l -0.734,7.454 c -0.031,0.25 -0.078,0.265 -0.203,0.265 -0.125,0 -0.188,-0.015 -0.297,-0.203 l -4.188,-7 z m 1.438,1.844 2.406,4.015 0.406,-4.015 -2.812,0 z" /><g
       id="g8166"><g
         id="g8168"
         clip-path="url(#clipPath8170)"><g
           id="g8174"
           transform="translate(0,-0.613998)"><g
             id="g8176"><g
               id="g8178"
               clip-path="url(#clipPath8180)"><g
                 id="g8184"><path
                   d="m 143.789,46.695 c 0.625,0 1.031,-0.453 1.031,-1.297 0,-1 -0.562,-1.281 -0.984,-1.281 -0.438,0 -1.047,0.156 -1.328,0.578 0.297,0 0.5,0.188 0.5,0.438 0,0.265 -0.188,0.437 -0.453,0.437 -0.203,0 -0.438,-0.125 -0.438,-0.453 0,-0.75 0.813,-1.25 1.735,-1.25 1.046,0 1.796,0.735 1.796,1.531 0,0.672 -0.531,1.266 -1.343,1.454 0.625,0.218 1.109,0.75 1.109,1.39 0,0.641 -0.719,1.094 -1.547,1.094 -0.859,0 -1.5,-0.453 -1.5,-1.063 0,-0.296 0.188,-0.421 0.406,-0.421 0.25,0 0.407,0.171 0.407,0.406 0,0.297 -0.266,0.406 -0.438,0.406 0.344,0.438 0.953,0.469 1.094,0.469 0.203,0 0.812,-0.063 0.812,-0.891 0,-0.547 -0.234,-0.89 -0.343,-1.015 -0.235,-0.25 -0.422,-0.266 -0.907,-0.297 -0.156,0 -0.218,-0.016 -0.218,-0.125 0,-0.11 0.078,-0.11 0.218,-0.11 l 0.391,0 z"
                   style="fill:#000000;fill-opacity:1;fill-rule:nonzero;stroke:none"
                   id="path8186"
                   inkscape:connector-curvature="0" /></g></g></g></g></g></g><g
       id="g8188"><path
         d="m 94.828,25.261 c 0,0.109 -0.078,0.109 -0.094,0.109 -0.031,0 -0.078,0 -0.172,-0.125 l -0.828,-1 c -0.422,0.719 -1.078,1.125 -1.968,1.125 -2.578,0 -5.266,-2.625 -5.266,-5.437 0,-2 1.406,-3.234 3.141,-3.234 0.968,0 1.797,0.406 2.5,0.984 1.031,0.875 1.343,2.031 1.343,2.141 0,0.093 -0.093,0.093 -0.125,0.093 -0.109,0 -0.125,-0.062 -0.156,-0.109 -0.547,-1.875 -2.156,-2.766 -3.359,-2.766 -1.266,0 -2.36,0.813 -2.36,2.516 0,0.375 0.125,2.453 1.469,4.031 0.656,0.766 1.781,1.422 2.922,1.422 1.313,0 1.891,-1.078 1.891,-2.297 0,-0.312 -0.032,-0.578 -0.032,-0.625 0,-0.109 0.125,-0.109 0.157,-0.109 0.125,0 0.14,0.015 0.187,0.234 l 0.75,3.047 z"
         style="fill:#000000;fill-opacity:1;fill-rule:nonzero;stroke:none"
         id="path8190"
         inkscape:connector-curvature="0" /></g><g
       id="g8192"><g
         id="g8194"
         clip-path="url(#clipPath8196)"><g
           id="g8200"
           transform="translate(0,-0.613998)"><g
             id="g8202"><g
               id="g8204"
               clip-path="url(#clipPath8206)"><g
                 id="g8210"><path
                   d="m 73.375,99.773 c -0.016,-0.062 -0.047,-0.14 -0.047,-0.203 0,-0.187 0.156,-0.297 0.328,-0.297 0.188,0 0.344,0.11 0.422,0.282 0.047,0.109 0.375,1.547 0.766,3.015 0.234,-0.609 0.672,-0.859 1.14,-0.859 1.36,0 2.891,1.672 2.891,3.484 0,1.282 -0.781,1.907 -1.609,1.907 -1.047,0 -2.328,-1.079 -2.719,-2.672 l -1.172,-4.657 z m 2.594,2.188 c -0.813,0 -1.016,0.937 -1.016,1.078 0,0.078 0.313,1.219 0.344,1.391 0.609,2.375 1.781,2.437 1.953,2.437 0.547,0 0.844,-0.484 0.844,-1.187 0,-0.61 -0.328,-1.797 -0.532,-2.297 -0.359,-0.828 -0.984,-1.422 -1.593,-1.422 z"
                   style="fill:#000000;fill-opacity:1;fill-rule:nonzero;stroke:none"
                   id="path8212"
                   inkscape:connector-curvature="0" /></g></g></g></g></g></g><g
       id="g8214"><path
         d="m 81.539,104.507 c 0,0.219 -0.016,0.219 -0.234,0.219 -0.328,-0.313 -0.75,-0.5 -1.5,-0.5 l 0,-0.266 c 0.218,0 0.64,0 1.109,0.203 l 0,-4.078 c 0,-0.297 -0.031,-0.39 -0.781,-0.39 l -0.281,0 0,-0.266 c 0.328,0.031 1.015,0.031 1.375,0.031 0.359,0 1.046,0 1.375,-0.031 l 0,0.266 -0.282,0 c -0.75,0 -0.781,0.093 -0.781,0.39 l 0,4.422 z"
         style="fill:#000000;fill-opacity:1;fill-rule:nonzero;stroke:none"
         id="path8216"
         inkscape:connector-curvature="0" /></g><g
       id="g8218"><g
         id="g8220"
         clip-path="url(#clipPath8222)"><g
           id="g8226"
           transform="translate(0,-0.613998)"><g
             id="g8228"><g
               id="g8230"
               clip-path="url(#clipPath8232)"><g
                 id="g8236"><path
                   d="m 101.375,99.773 c -0.016,-0.062 -0.047,-0.14 -0.047,-0.203 0,-0.187 0.156,-0.297 0.328,-0.297 0.188,0 0.344,0.11 0.422,0.282 0.047,0.109 0.375,1.547 0.766,3.015 0.234,-0.609 0.672,-0.859 1.14,-0.859 1.36,0 2.891,1.672 2.891,3.484 0,1.282 -0.781,1.907 -1.609,1.907 -1.047,0 -2.328,-1.079 -2.719,-2.672 l -1.172,-4.657 z m 2.594,2.188 c -0.813,0 -1.016,0.937 -1.016,1.078 0,0.078 0.313,1.219 0.344,1.391 0.609,2.375 1.781,2.437 1.953,2.437 0.547,0 0.844,-0.484 0.844,-1.187 0,-0.61 -0.328,-1.797 -0.532,-2.297 -0.359,-0.828 -0.984,-1.422 -1.593,-1.422 z"
                   style="fill:#000000;fill-opacity:1;fill-rule:nonzero;stroke:none"
                   id="path8238"
                   inkscape:connector-curvature="0" /></g></g></g></g></g></g><g
       id="g8240"><path
         d="m 109.289,101.054 c 0.125,0.125 0.453,0.391 0.594,0.5 0.484,0.453 0.953,0.891 0.953,1.609 0,0.953 -0.797,1.563 -1.781,1.563 -0.969,0 -1.594,-0.719 -1.594,-1.438 0,-0.39 0.312,-0.437 0.422,-0.437 0.172,0 0.422,0.109 0.422,0.422 0,0.406 -0.407,0.406 -0.5,0.406 0.234,0.594 0.765,0.781 1.156,0.781 0.734,0 1.125,-0.625 1.125,-1.297 0,-0.828 -0.578,-1.437 -1.531,-2.39 l -1,-1.047 c -0.094,-0.078 -0.094,-0.094 -0.094,-0.297 l 3.141,0 0.234,1.422 -0.25,0 c -0.016,-0.156 -0.078,-0.547 -0.172,-0.703 -0.047,-0.063 -0.656,-0.063 -0.781,-0.063 l -1.422,0 1.078,0.969 z"
         style="fill:#000000;fill-opacity:1;fill-rule:nonzero;stroke:none"
         id="path8242"
         inkscape:connector-curvature="0" /><path
         d="m 37,153.218 c 0,2.207 -1.789,4 -4,4 -2.211,0 -4,-1.793 -4,-4 0,-2.211 1.789,-4 4,-4 2.211,0 4,1.789 4,4"
         style="fill:#ffffff;fill-opacity:1;fill-rule:evenodd;stroke:#000000;stroke-width:2;stroke-linecap:butt;stroke-linejoin:round;stroke-miterlimit:10;stroke-dasharray:none;stroke-opacity:1"
         id="path8244"
         inkscape:connector-curvature="0" /><path
         d="m 133,153.218 c 0,2.207 -1.789,4 -4,4 -2.211,0 -4,-1.793 -4,-4 0,-2.211 1.789,-4 4,-4 2.211,0 4,1.789 4,4"
         style="fill:#ffffff;fill-opacity:1;fill-rule:evenodd;stroke:#000000;stroke-width:2;stroke-linecap:butt;stroke-linejoin:round;stroke-miterlimit:10;stroke-dasharray:none;stroke-opacity:1"
         id="path8246"
         inkscape:connector-curvature="0" /><path
         d="m 197,153.218 c 0,2.207 -1.789,4 -4,4 -2.211,0 -4,-1.793 -4,-4 0,-2.211 1.789,-4 4,-4 2.211,0 4,1.789 4,4"
         style="fill:#ffffff;fill-opacity:1;fill-rule:evenodd;stroke:#000000;stroke-width:2;stroke-linecap:butt;stroke-linejoin:round;stroke-miterlimit:10;stroke-dasharray:none;stroke-opacity:1"
         id="path8248"
         inkscape:connector-curvature="0" /><path
         d="m 81.336,17.218 c 2.207,0 4,1.789 4,4 0,2.207 -1.793,4 -4,4 -2.211,0 -4,-1.793 -4,-4 0,-2.211 1.789,-4 4,-4"
         style="fill:#a8a8a8;fill-opacity:1;fill-rule:evenodd;stroke:#000000;stroke-width:0.40000001;stroke-linecap:butt;stroke-linejoin:round;stroke-miterlimit:10;stroke-dasharray:none;stroke-opacity:1"
         id="path8250"
         inkscape:connector-curvature="0" /><path
         d="m 81.336,21.218 4,0 -4,-4 0,4 z"
         style="fill:#000000;fill-opacity:1;fill-rule:evenodd;stroke:#000000;stroke-width:0.40000001;stroke-linecap:butt;stroke-linejoin:round;stroke-miterlimit:10;stroke-dasharray:none;stroke-opacity:1"
         id="path8252"
         inkscape:connector-curvature="0" /><path
         d="m 85.336,21.218 c 0,-2.211 -1.793,-4 -4,-4"
         style="fill:#000000;fill-opacity:1;fill-rule:evenodd;stroke:#000000;stroke-width:0.40000001;stroke-linecap:butt;stroke-linejoin:round;stroke-miterlimit:10;stroke-dasharray:none;stroke-opacity:1"
         id="path8254"
         inkscape:connector-curvature="0" /><path
         d="m 81.336,21.218 -4,0 4,4 0,-4 z"
         style="fill:#000000;fill-opacity:1;fill-rule:evenodd;stroke:#000000;stroke-width:0.40000001;stroke-linecap:butt;stroke-linejoin:round;stroke-miterlimit:10;stroke-dasharray:none;stroke-opacity:1"
         id="path8256"
         inkscape:connector-curvature="0" /><path
         d="m 77.336,21.218 c 0,2.207 1.789,4 4,4"
         style="fill:#000000;fill-opacity:1;fill-rule:evenodd;stroke:#000000;stroke-width:0.40000001;stroke-linecap:butt;stroke-linejoin:round;stroke-miterlimit:10;stroke-dasharray:none;stroke-opacity:1"
         id="path8258"
         inkscape:connector-curvature="0" /><path
         d="m 161.211,153.566 -64,-112"
         style="fill:#000000;fill-opacity:1;fill-rule:evenodd;stroke:#000000;stroke-width:0.40000001;stroke-linecap:butt;stroke-linejoin:round;stroke-miterlimit:10;stroke-dasharray:4, 4;stroke-dashoffset:0;stroke-opacity:1"
         id="path8260"
         inkscape:connector-curvature="0" /><path
         d="m 167.484,164.738 c 0.11,0.453 0.157,0.468 0.625,0.468 l 1.547,0 c 1.36,0 1.36,-1.14 1.36,-1.25 0,-0.968 -0.969,-2.203 -2.547,-2.203 l -1.719,0 0.734,2.985 z m 2.016,-3.079 c 1.312,0.235 2.484,1.157 2.484,2.25 0,0.938 -0.812,1.641 -2.172,1.641 l -3.828,0 c -0.234,0 -0.343,0 -0.343,-0.219 0,-0.125 0.109,-0.125 0.297,-0.125 0.718,0 0.718,-0.093 0.718,-0.218 0,-0.032 0,-0.094 -0.047,-0.282 L 165,158.284 c -0.109,-0.421 -0.141,-0.546 -0.969,-0.546 -0.234,0 -0.343,0 -0.343,-0.219 0,-0.125 0.062,-0.125 0.312,-0.125 l 4.094,0 c 1.828,0 3.234,1.39 3.234,2.594 0,0.984 -0.859,1.578 -1.828,1.671 z m -1.688,-3.921 -1.624,0 c -0.157,0 -0.188,0 -0.25,0.015 -0.141,0.016 -0.157,0.031 -0.157,0.125 0,0.094 0.031,0.156 0.047,0.266 l 0.844,3.375 2.25,0 c 1.406,0 1.406,-1.313 1.406,-1.406 0,-1.157 -1.031,-2.375 -2.516,-2.375 z"
         style="fill:#000000;fill-opacity:1;fill-rule:nonzero;stroke:none"
         id="path8262"
         inkscape:connector-curvature="0" /><path
         d="m 173.598,156.913 c 0.031,0.11 0.109,0.422 0.125,0.532 0.031,0.078 0.078,0.281 0.093,0.359 0.016,0.031 0.282,0.547 0.625,0.812 0.266,0.219 0.532,0.282 0.766,0.282 0.281,0 0.453,-0.188 0.453,-0.547 0,-0.188 -0.047,-0.375 -0.14,-0.735 -0.063,-0.203 -0.188,-0.734 -0.235,-0.953 l -0.125,-0.484 c -0.047,-0.125 -0.094,-0.375 -0.094,-0.406 0,-0.188 0.157,-0.25 0.25,-0.25 0.141,0 0.266,0.093 0.329,0.187 0.015,0.047 0.078,0.328 0.125,0.485 l 0.171,0.718 c 0.032,0.11 0.11,0.422 0.141,0.532 0.109,0.437 0.109,0.437 0.281,0.703 0.266,0.39 0.641,0.75 1.172,0.75 0.297,0 0.469,-0.172 0.469,-0.547 0,-0.438 -0.344,-1.36 -0.5,-1.735 -0.078,-0.203 -0.094,-0.265 -0.094,-0.421 0,-0.454 0.375,-0.672 0.719,-0.672 0.781,0 1.109,1.109 1.109,1.218 0,0.079 -0.078,0.11 -0.125,0.11 -0.093,0 -0.109,-0.063 -0.14,-0.141 -0.188,-0.656 -0.516,-0.969 -0.828,-0.969 -0.125,0 -0.188,0.079 -0.188,0.266 0,0.188 0.063,0.359 0.141,0.563 0.125,0.296 0.468,1.218 0.468,1.656 0,0.609 -0.406,0.89 -0.984,0.89 -0.547,0 -1,-0.281 -1.359,-0.781 -0.063,0.641 -0.578,0.781 -0.985,0.781 -0.375,0 -0.859,-0.125 -1.297,-0.703 -0.062,0.485 -0.437,0.703 -0.812,0.703 -0.281,0 -0.484,-0.171 -0.609,-0.437 -0.204,-0.375 -0.282,-0.766 -0.282,-0.781 0,-0.078 0.063,-0.11 0.125,-0.11 0.11,0 0.11,0.032 0.172,0.25 0.094,0.391 0.235,0.86 0.563,0.86 0.218,0 0.265,-0.203 0.265,-0.375 0,-0.157 -0.047,-0.297 -0.109,-0.563 -0.016,-0.062 -0.141,-0.531 -0.172,-0.64 l -0.297,-1.204 c -0.031,-0.125 -0.078,-0.312 -0.078,-0.343 0,-0.188 0.156,-0.25 0.266,-0.25 0.14,0 0.265,0.093 0.312,0.187 0.031,0.047 0.094,0.328 0.125,0.485 l 0.188,0.718 z"
         style="fill:#000000;fill-opacity:1;fill-rule:nonzero;stroke:none"
         id="path8264"
         inkscape:connector-curvature="0" /></g><g
       id="g8266"><g
         id="g8268"
         clip-path="url(#clipPath8270)"><g
           id="g8274"
           transform="translate(0,-0.613998)"><g
             id="g8276"><g
               id="g8278"
               clip-path="url(#clipPath8280)"><g
                 id="g8284"><path
                   d="m 135.309,99.773 c -0.016,-0.062 -0.047,-0.14 -0.047,-0.203 0,-0.187 0.156,-0.297 0.328,-0.297 0.187,0 0.344,0.11 0.422,0.282 0.047,0.109 0.375,1.547 0.765,3.015 0.235,-0.609 0.672,-0.859 1.141,-0.859 1.359,0 2.891,1.672 2.891,3.484 0,1.282 -0.782,1.907 -1.61,1.907 -1.047,0 -2.328,-1.079 -2.719,-2.672 l -1.171,-4.657 z m 2.593,2.188 c -0.812,0 -1.015,0.937 -1.015,1.078 0,0.078 0.312,1.219 0.343,1.391 0.61,2.375 1.782,2.437 1.954,2.437 0.546,0 0.843,-0.484 0.843,-1.187 0,-0.61 -0.328,-1.797 -0.531,-2.297 -0.359,-0.828 -0.984,-1.422 -1.594,-1.422 z"
                   style="fill:#000000;fill-opacity:1;fill-rule:nonzero;stroke:none"
                   id="path8286"
                   inkscape:connector-curvature="0" /></g></g></g></g></g></g><g
       id="g8288"><path
         d="m 142.566,100.741 c 0.032,0.11 0.11,0.422 0.125,0.532 0.032,0.078 0.079,0.281 0.094,0.359 0.016,0.031 0.281,0.547 0.625,0.813 0.266,0.218 0.531,0.281 0.766,0.281 0.281,0 0.453,-0.188 0.453,-0.547 0,-0.188 -0.047,-0.375 -0.141,-0.734 -0.062,-0.204 -0.187,-0.735 -0.234,-0.954 l -0.125,-0.484 c -0.047,-0.125 -0.094,-0.375 -0.094,-0.406 0,-0.188 0.156,-0.25 0.25,-0.25 0.141,0 0.266,0.094 0.328,0.187 0.016,0.047 0.078,0.328 0.125,0.485 l 0.172,0.718 c 0.031,0.11 0.11,0.422 0.141,0.532 0.109,0.437 0.109,0.437 0.281,0.703 0.266,0.39 0.641,0.75 1.172,0.75 0.297,0 0.469,-0.172 0.469,-0.547 0,-0.438 -0.344,-1.359 -0.5,-1.734 -0.078,-0.204 -0.094,-0.266 -0.094,-0.422 0,-0.453 0.375,-0.672 0.719,-0.672 0.781,0 1.109,1.109 1.109,1.219 0,0.078 -0.078,0.109 -0.125,0.109 -0.094,0 -0.109,-0.063 -0.141,-0.141 -0.187,-0.656 -0.515,-0.968 -0.828,-0.968 -0.125,0 -0.187,0.078 -0.187,0.265 0,0.188 0.062,0.36 0.14,0.563 0.125,0.297 0.469,1.218 0.469,1.656 0,0.609 -0.406,0.891 -0.984,0.891 -0.547,0 -1,-0.282 -1.36,-0.782 -0.062,0.641 -0.578,0.782 -0.984,0.782 -0.375,0 -0.859,-0.125 -1.297,-0.704 -0.062,0.485 -0.437,0.704 -0.812,0.704 -0.282,0 -0.485,-0.172 -0.61,-0.438 -0.203,-0.375 -0.281,-0.766 -0.281,-0.781 0,-0.078 0.063,-0.11 0.125,-0.11 0.109,0 0.109,0.032 0.172,0.25 0.094,0.391 0.234,0.86 0.562,0.86 0.219,0 0.266,-0.203 0.266,-0.375 0,-0.156 -0.047,-0.297 -0.109,-0.563 -0.016,-0.062 -0.141,-0.531 -0.172,-0.64 l -0.297,-1.203 c -0.031,-0.125 -0.078,-0.313 -0.078,-0.344 0,-0.188 0.156,-0.25 0.265,-0.25 0.141,0 0.266,0.094 0.313,0.187 0.031,0.047 0.094,0.328 0.125,0.485 l 0.187,0.718 z"
         style="fill:#000000;fill-opacity:1;fill-rule:nonzero;stroke:none"
         id="path8290"
         inkscape:connector-curvature="0" /><path
         d="m 17.008,115.566 0,21.761"
         style="fill:none;stroke:#000000;stroke-width:0.40000001;stroke-linecap:butt;stroke-linejoin:round;stroke-miterlimit:10;stroke-dasharray:none;stroke-opacity:1"
         id="path8292"
         inkscape:connector-curvature="0" /><path
         d="m 17.008,115.566 1.668,5 -1.668,-1 -1.664,1 1.664,-5 z"
         style="fill:#000000;fill-opacity:1;fill-rule:evenodd;stroke:#000000;stroke-width:0.40000001;stroke-linecap:butt;stroke-linejoin:round;stroke-miterlimit:10;stroke-dasharray:none;stroke-opacity:1"
         id="path8294"
         inkscape:connector-curvature="0" /><path
         d="m 109.055,162.175 0.058,0.039 0.125,0.078 0.063,0.047 0.058,0.043 0.118,0.094 0.05,0.051 0.059,0.047 0.102,0.101 0.046,0.051 0.051,0.055 0.043,0.05 0.043,0.055 0.043,0.051 c 0.281,0.398 0.395,0.777 0.395,1.101 0,0.309 -0.098,0.578 -0.286,0.793 -0.449,0.563 -1.296,0.762 -2.253,0.762 -0.875,0 -2.008,-0.496 -3.012,-1.172 -1.184,-0.805 -2.172,-1.808 -2.891,-2.824 -0.961,-1.383 -1.555,-2.738 -1.555,-3.883 0,-0.129 0.016,-0.265 0.028,-0.394 0.144,-1.118 0.976,-1.836 2.402,-1.836 0.664,0 1.508,0.367 2.258,0.89 0.891,0.606 1.625,1.356 2.16,2.117 0.848,1.2 1.399,2.415 1.399,3.43 l 0,0.043 -0.016,0.309 c -0.109,0.82 -0.691,1.383 -1.75,1.383 -0.539,0 -1.215,-0.465 -1.75,-0.903 -0.793,-0.664 -1.426,-1.41 -1.949,-2.144 -0.844,-1.2 -1.199,-2.332 -1.328,-3.36 l 0,-0.058 c 0.015,-0.039 0.058,-0.071 0.101,-0.071 0.012,0 0.039,0 0.055,0.016 l 0.199,0.07 c 0.027,0.016 0.055,0.059 0.07,0.102 0.125,0.969 0.45,2.031 1.243,3.156 0.507,0.711 1.086,1.426 1.82,2.067 0.508,0.433 1.074,0.816 1.484,0.816 0.848,0 1.211,-0.481 1.227,-1.172 -0.563,0.027 -0.961,0.27 -1.41,0.481 -0.016,0.015 -0.043,0.015 -0.059,0.015 -0.027,0 -0.055,-0.015 -0.086,-0.027 l -0.07,-0.086 c -0.028,-0.027 -0.043,-0.059 -0.043,-0.086 0,-0.043 0.031,-0.086 0.07,-0.098 0.426,-0.242 0.922,-0.492 1.582,-0.508 -0.097,-0.945 -0.719,-2.089 -1.539,-3.234 -0.492,-0.707 -1.074,-1.426 -1.848,-2.031 -0.593,-0.469 -1.269,-0.805 -1.765,-0.805 -1.102,0 -1.594,0.621 -1.594,1.512 l 0,0.07 c 0.043,1.168 0.848,2.621 1.879,4.078 0.664,0.946 1.367,1.907 2.383,2.727 0.75,0.621 1.625,1.098 2.246,1.098 0.918,0 1.637,-0.184 2.019,-0.649 0.129,-0.156 0.2,-0.351 0.2,-0.578 0,-0.285 -0.114,-0.605 -0.371,-0.977 -0.168,-0.238 -0.395,-0.476 -0.692,-0.648 -0.113,-0.07 -0.211,-0.125 -0.324,-0.156 l 0.016,-0.309 c 0.168,0.039 0.339,0.125 0.496,0.211 z"
         style="fill:#000000;fill-opacity:1;fill-rule:evenodd;stroke:none"
         id="path8296"
         inkscape:connector-curvature="0" /><path
         d="m 15.863,133.284 -0.863,0 c -0.039,0 -0.113,0.024 -0.223,0.11 -0.382,0.254 -0.847,0.398 -1.386,0.398 l -0.012,-0.312 c 0.523,0 0.793,-0.34 0.793,-1 0,-0.496 -0.172,-1.117 -0.442,-1.598 -0.308,-0.582 -0.746,-0.891 -1.226,-0.891 -0.539,0 -0.848,0.395 -0.848,1.059 0,1.301 0.805,2.43 1.723,2.43 l 0.012,0.312 c -1.563,0 -2.836,-1.09 -2.836,-2.418 0,-0.73 0.312,-1.156 1.117,-1.523 -0.832,-0.563 -1.09,-0.848 -1.09,-1.184 0,-0.183 0.113,-0.355 0.383,-0.554 l 0.324,-0.157 c 0.016,0 0.043,-0.011 0.07,-0.023 0.043,-0.016 0.184,-0.059 0.411,-0.129 1.496,-0.465 2.019,-0.859 2.019,-1.508 0,-0.765 -0.82,-1.328 -1.906,-1.328 -1.129,0 -1.793,0.535 -1.793,1.438 0,0.339 0.086,0.582 0.308,0.847 0.184,0.238 0.778,0.703 0.891,0.703 l -0.324,0.157 c -1.395,-0.918 -1.653,-1.2 -1.653,-1.848 0,-0.973 0.934,-1.609 2.36,-1.609 1.777,0 2.965,0.835 2.965,2.062 0,0.887 -0.676,1.508 -2.02,1.863 -0.621,0.153 -0.988,0.379 -0.988,0.594 0,0.211 0.324,0.578 0.508,0.578 0.027,0 0.054,0 0.097,-0.015 0.114,-0.028 0.309,-0.043 0.438,-0.043 1.289,0 2.613,1.144 2.613,2.246 0,0.226 -0.043,0.508 -0.129,0.789 l 0.707,0 0,0.554 z"
         style="fill:#000000;fill-opacity:1;fill-rule:evenodd;stroke:none"
         id="path8298"
         inkscape:connector-curvature="0" /></g></g></svg>